<svg width="602" height="78" viewBox="0 0 602 78" fill="none" xmlns="http://www.w3.org/2000/svg">
<path d="M46.6709 0.5C46.947 0.500058 47.1709 0.723893 47.1709 1V69.5059C47.1709 69.782 46.947 70.0058 46.6709 70.0059H39.9395V76.7373C39.9395 77.0134 39.7156 77.2373 39.4395 77.2373H8.61133C8.3354 77.2371 8.11133 77.0133 8.11133 76.7373V70.0059H1C0.723858 70.0059 0.5 69.782 0.5 69.5059V53.5215L0.509766 53.4209C0.556265 53.1929 0.758262 53.0215 1 53.0215H16.2236C16.4998 53.0215 16.7236 53.2454 16.7236 53.5215V61.3945H30.9473V16.3428H12.418C12.1418 16.3428 11.918 16.1189 11.918 15.8428V1C11.918 0.723858 12.1418 0.5 12.418 0.5H46.6709Z" fill="#F1F5F9" stroke="#F1F5F9" stroke-miterlimit="16" stroke-linejoin="round"/>
<path fill-rule="evenodd" clip-rule="evenodd" d="M115.177 1H61.8944V8.6118H53.902V69.5062H61.8944V77.118H115.177V69.5062H122.789V8.6118H115.177V1ZM73.3121 16.2236H103.759V61.5138H73.3121V16.2236Z" fill="#F1F5F9" stroke="#F1F5F9" stroke-miterlimit="16" stroke-linejoin="round"/>
<path d="M259.801 0.619415H206.519V76.7374H259.801V61.5138H229.354V46.2902H252.189V31.0666H229.354V15.843H259.801V0.619415Z" fill="#F1F5F9" stroke="#F1F5F9" stroke-miterlimit="16" stroke-linejoin="round"/>
<path d="M286.823 0.619415H267.413V69.1256H275.025V76.7374H317.27V69.1256H325.263V0.619415H305.472V61.5138H286.823V0.619415Z" fill="#F1F5F9" stroke="#F1F5F9" stroke-miterlimit="16" stroke-linejoin="round"/>
<path d="M332.113 0.619415V76.7374H351.143V35.6337H358.755V46.6708H366.366V53.902H373.978V66.0809H381.59V76.7374H401V0.619415H381.59V38.6784H373.978V31.4472H366.366V19.2683H358.755V8.23121H351.143V0.619415H332.113Z" fill="#F1F5F9" stroke="#F1F5F9" stroke-miterlimit="16" stroke-linejoin="round"/>
<path fill-rule="evenodd" clip-rule="evenodd" d="M191.676 1.38058H138.393V8.99238H130.401V69.8868H138.393V77.4986H191.676V69.8868H199.287V8.99238H191.676V1.38058ZM149.811 16.6042H180.258V61.8944H149.811V16.6042Z" fill="#F1F5F9" stroke="#F1F5F9" stroke-miterlimit="16" stroke-linejoin="round"/>
<path d="M541 0.619415H487V76.6194H541V61.4194H510.143V46.2194H533.286V31.0194H510.143V15.8194H541V0.619415Z" fill="#F1F5F9" stroke="#F1F5F9" stroke-miterlimit="16" stroke-linejoin="round"/>
<path d="M601 0.619415H548V76.6194H601V61.4194H570.714V46.2194H593.429V31.0194H570.714V15.8194H601V0.619415Z" fill="#F1F5F9" stroke="#F1F5F9" stroke-miterlimit="16" stroke-linejoin="round"/>
<path d="M431 76.6194V0.999415V0.619415H449.612V61.4194H480V76.6194H431Z" fill="#F1F5F9"/>
<path d="M431 0.999415V76.6194M431 76.6194V0.619415H449.612V61.4194H480V76.6194H431Z" stroke="#F1F5F9" stroke-miterlimit="16" stroke-linejoin="round"/>
</svg>
